<svg xmlns="http://www.w3.org/2000/svg" width="960" height="420" viewBox="0 0 960 420" role="img" aria-label="Remote Access">
  <rect width="960" height="420" rx="28" fill="#f8fafc"/>
  <rect x="42" y="42" width="876" height="336" rx="22" fill="#ffffff" stroke="#d9e2ec" stroke-width="2"/>
  <g transform="translate(72 74) scale(1.075)">
    <path d="M40 4.06 48.07 20.52 65.41 14.59 59.48 31.93 75.94 40 59.48 48.07 65.41 65.41 48.07 59.48 40 75.94 31.93 59.48 14.59 65.41 20.52 48.07 4.06 40 20.52 31.93 14.59 14.59 31.93 20.52Z" fill="#FACC3D"/>
    <circle cx="40" cy="40" r="21.09" fill="#FFF1BF"/>
  </g>
  <text x="190" y="112" font-family="Inter, ui-sans-serif, system-ui, -apple-system, BlinkMacSystemFont, Segoe UI, sans-serif" font-size="40" font-weight="800" fill="#0f172a">Remote Access</text>
  <text x="190" y="156" font-family="Inter, ui-sans-serif, system-ui, -apple-system, BlinkMacSystemFont, Segoe UI, sans-serif" font-size="21" font-weight="600" fill="#64748b">Use WebUI and messaging channels to supervise desktop agents from another device.</text>
  <line x1="72" y1="242" x2="888" y2="242" stroke="#d9e2ec" stroke-width="2"/>
  <text x="72" y="278" font-family="Inter, ui-sans-serif, system-ui, -apple-system, BlinkMacSystemFont, Segoe UI, sans-serif" font-size="18" font-weight="700" fill="#64748b">PanAI independent product media</text>
  <rect x="72" y="302" width="92" height="34" rx="17" fill="#14b8a6" fill-opacity="0.12"/><circle cx="90" cy="319" r="5" fill="#14b8a6"/><text x="104" y="324" font-size="14" font-weight="700" fill="#14b8a6">WebUI</text><rect x="178" y="302" width="92" height="34" rx="17" fill="#2563eb" fill-opacity="0.12"/><circle cx="196" cy="319" r="5" fill="#2563eb"/><text x="210" y="324" font-size="14" font-weight="700" fill="#2563eb">Mobile</text><rect x="284" y="302" width="136" height="34" rx="17" fill="#f59e0b" fill-opacity="0.12"/><circle cx="302" cy="319" r="5" fill="#f59e0b"/><text x="316" y="324" font-size="14" font-weight="700" fill="#f59e0b">Notifications</text>
</svg>
