<svg xmlns="http://www.w3.org/2000/svg" width="960" height="420" viewBox="0 0 960 420" role="img" aria-label="Image Generation">
  <rect width="960" height="420" rx="28" fill="#f8fafc"/>
  <rect x="42" y="42" width="876" height="336" rx="22" fill="#ffffff" stroke="#d9e2ec" stroke-width="2"/>
  <g transform="translate(72 74) scale(1.075)">
    <path d="M40 4.06 48.07 20.52 65.41 14.59 59.48 31.93 75.94 40 59.48 48.07 65.41 65.41 48.07 59.48 40 75.94 31.93 59.48 14.59 65.41 20.52 48.07 4.06 40 20.52 31.93 14.59 14.59 31.93 20.52Z" fill="#FACC3D"/>
    <circle cx="40" cy="40" r="21.09" fill="#FFF1BF"/>
  </g>
  <text x="190" y="112" font-family="Inter, ui-sans-serif, system-ui, -apple-system, BlinkMacSystemFont, Segoe UI, sans-serif" font-size="40" font-weight="800" fill="#0f172a">Image Generation</text>
  <text x="190" y="156" font-family="Inter, ui-sans-serif, system-ui, -apple-system, BlinkMacSystemFont, Segoe UI, sans-serif" font-size="21" font-weight="600" fill="#64748b">Connect image models through PanAI provider adapters for visual generation workflows.</text>
  <line x1="72" y1="242" x2="888" y2="242" stroke="#d9e2ec" stroke-width="2"/>
  <text x="72" y="278" font-family="Inter, ui-sans-serif, system-ui, -apple-system, BlinkMacSystemFont, Segoe UI, sans-serif" font-size="18" font-weight="700" fill="#64748b">PanAI independent product media</text>
  <rect x="72" y="302" width="136" height="34" rx="17" fill="#14b8a6" fill-opacity="0.12"/><circle cx="90" cy="319" r="5" fill="#14b8a6"/><text x="104" y="324" font-size="14" font-weight="700" fill="#14b8a6">Text to image</text><rect x="222" y="302" width="92" height="34" rx="17" fill="#2563eb" fill-opacity="0.12"/><circle cx="240" cy="319" r="5" fill="#2563eb"/><text x="254" y="324" font-size="14" font-weight="700" fill="#2563eb">Assets</text><rect x="328" y="302" width="92" height="34" rx="17" fill="#f59e0b" fill-opacity="0.12"/><circle cx="346" cy="319" r="5" fill="#f59e0b"/><text x="360" y="324" font-size="14" font-weight="700" fill="#f59e0b">Review</text>
</svg>
