<svg xmlns="http://www.w3.org/2000/svg" width="960" height="420" viewBox="0 0 960 420" role="img" aria-label="Model Provider Hub">
  <rect width="960" height="420" rx="28" fill="#f8fafc"/>
  <rect x="42" y="42" width="876" height="336" rx="22" fill="#ffffff" stroke="#d9e2ec" stroke-width="2"/>
  <rect x="72" y="74" width="86" height="86" rx="20" fill="#030712"/>
  <path d="M95 129h36c17 0 28-11 28-27s-11-27-28-27H95v74h20v-20Zm20-18V93h14c6 0 10 4 10 9s-4 9-10 9h-14Z" fill="#ffffff"/>
  <path d="M103 143c23 13 44 12 63-5" fill="none" stroke="#14b8a6" stroke-width="6" stroke-linecap="round"/>
  <circle cx="164" cy="150" r="8" fill="#14b8a6"/>
  <text x="190" y="112" font-family="Inter, ui-sans-serif, system-ui, -apple-system, BlinkMacSystemFont, Segoe UI, sans-serif" font-size="40" font-weight="800" fill="#0f172a">Model Provider Hub</text>
  <text x="190" y="156" font-family="Inter, ui-sans-serif, system-ui, -apple-system, BlinkMacSystemFont, Segoe UI, sans-serif" font-size="21" font-weight="600" fill="#64748b">Use cloud and local providers behind PanAI model routing without tying the product identity to one vendor.</text>
  <line x1="72" y1="242" x2="888" y2="242" stroke="#d9e2ec" stroke-width="2"/>
  <text x="72" y="278" font-family="Inter, ui-sans-serif, system-ui, -apple-system, BlinkMacSystemFont, Segoe UI, sans-serif" font-size="18" font-weight="700" fill="#64748b">PanAI independent product media</text>
  <rect x="72" y="302" width="92" height="34" rx="17" fill="#14b8a6" fill-opacity="0.12"/><circle cx="90" cy="319" r="5" fill="#14b8a6"/><text x="104" y="324" font-size="14" font-weight="700" fill="#14b8a6">OpenAI</text><rect x="178" y="302" width="92" height="34" rx="17" fill="#2563eb" fill-opacity="0.12"/><circle cx="196" cy="319" r="5" fill="#2563eb"/><text x="210" y="324" font-size="14" font-weight="700" fill="#2563eb">Google</text><rect x="284" y="302" width="92" height="34" rx="17" fill="#f59e0b" fill-opacity="0.12"/><circle cx="302" cy="319" r="5" fill="#f59e0b"/><text x="316" y="324" font-size="14" font-weight="700" fill="#f59e0b">Claude</text><rect x="390" y="302" width="128" height="34" rx="17" fill="#111827" fill-opacity="0.12"/><circle cx="408" cy="319" r="5" fill="#111827"/><text x="422" y="324" font-size="14" font-weight="700" fill="#111827">Hugging Face</text>
</svg>
