<svg xmlns="http://www.w3.org/2000/svg" width="960" height="420" viewBox="0 0 960 420" role="img" aria-label="Extensible Skills">
  <rect width="960" height="420" rx="28" fill="#f8fafc"/>
  <rect x="42" y="42" width="876" height="336" rx="22" fill="#ffffff" stroke="#d9e2ec" stroke-width="2"/>
  <g transform="translate(72 74) scale(1.075)">
    <path d="M40 5L50 30L75 15L60 40L80 40L60 47L75 65L50 55L40 78L30 55L5 65L20 47L0 40L20 40L5 15L30 30Z" fill="#FACC3D"/>
    <circle cx="40" cy="40" r="22" fill="#FEF1B7"/>
  </g>
  <text x="190" y="112" font-family="Inter, ui-sans-serif, system-ui, -apple-system, BlinkMacSystemFont, Segoe UI, sans-serif" font-size="40" font-weight="800" fill="#0f172a">Extensible Skills</text>
  <text x="190" y="156" font-family="Inter, ui-sans-serif, system-ui, -apple-system, BlinkMacSystemFont, Segoe UI, sans-serif" font-size="21" font-weight="600" fill="#64748b">Built-in, custom and extension skills can be enabled per workflow and governed by user approval.</text>
  <line x1="72" y1="242" x2="888" y2="242" stroke="#d9e2ec" stroke-width="2"/>
  <text x="72" y="278" font-family="Inter, ui-sans-serif, system-ui, -apple-system, BlinkMacSystemFont, Segoe UI, sans-serif" font-size="18" font-weight="700" fill="#64748b">PanAI independent product media</text>
  <rect x="72" y="302" width="96" height="34" rx="17" fill="#14b8a6" fill-opacity="0.12"/><circle cx="90" cy="319" r="5" fill="#14b8a6"/><text x="104" y="324" font-size="14" font-weight="700" fill="#14b8a6">Built-in</text><rect x="182" y="302" width="92" height="34" rx="17" fill="#2563eb" fill-opacity="0.12"/><circle cx="200" cy="319" r="5" fill="#2563eb"/><text x="214" y="324" font-size="14" font-weight="700" fill="#2563eb">Custom</text><rect x="288" y="302" width="112" height="34" rx="17" fill="#f59e0b" fill-opacity="0.12"/><circle cx="306" cy="319" r="5" fill="#f59e0b"/><text x="320" y="324" font-size="14" font-weight="700" fill="#f59e0b">Extensions</text>
</svg>
