<svg xmlns="http://www.w3.org/2000/svg" width="960" height="420" viewBox="0 0 960 420" role="img" aria-label="Built-in Pan CLI Agent">
  <rect width="960" height="420" rx="28" fill="#f8fafc"/>
  <rect x="42" y="42" width="876" height="336" rx="22" fill="#ffffff" stroke="#d9e2ec" stroke-width="2"/>
  <g transform="translate(72 74) scale(1.075)">
    <path d="M40 4.06 44.45 18.98 55.47 7.93 53.37 23.39 68.79 20.9 58.02 32.2 72.81 40 58.02 47.8 68.79 59.1 53.37 56.61 55.47 72.07 44.45 61.02 40 75.94 35.55 61.02 24.53 72.07 26.63 56.61 11.21 59.1 21.98 47.8 7.19 40 21.98 32.2 11.21 20.9 26.63 23.39 24.53 7.93 35.55 18.98Z" fill="#FACC3D"/>
    <circle cx="40" cy="40" r="21.09" fill="#FFF1BF"/>
  </g>
  <text x="190" y="112" font-family="Inter, ui-sans-serif, system-ui, -apple-system, BlinkMacSystemFont, Segoe UI, sans-serif" font-size="40" font-weight="800" fill="#0f172a">Built-in Pan CLI Agent</text>
  <text x="190" y="156" font-family="Inter, ui-sans-serif, system-ui, -apple-system, BlinkMacSystemFont, Segoe UI, sans-serif" font-size="21" font-weight="600" fill="#64748b">A first-party PanAI agent surface with local workspace access, approvals and multi-step task execution.</text>
  <line x1="72" y1="242" x2="888" y2="242" stroke="#d9e2ec" stroke-width="2"/>
  <text x="72" y="278" font-family="Inter, ui-sans-serif, system-ui, -apple-system, BlinkMacSystemFont, Segoe UI, sans-serif" font-size="18" font-weight="700" fill="#64748b">PanAI independent product media</text>
  <rect x="72" y="302" width="192" height="34" rx="17" fill="#14b8a6" fill-opacity="0.12"/><circle cx="90" cy="319" r="5" fill="#14b8a6"/><text x="104" y="324" font-size="14" font-weight="700" fill="#14b8a6">No extra CLI install</text><rect x="278" y="302" width="120" height="34" rx="17" fill="#2563eb" fill-opacity="0.12"/><circle cx="296" cy="319" r="5" fill="#2563eb"/><text x="310" y="324" font-size="14" font-weight="700" fill="#2563eb">Local files</text><rect x="412" y="302" width="136" height="34" rx="17" fill="#f59e0b" fill-opacity="0.12"/><circle cx="430" cy="319" r="5" fill="#f59e0b"/><text x="444" y="324" font-size="14" font-weight="700" fill="#f59e0b">Approval flow</text>
</svg>
